<?xml version="1.0" encoding="utf-8"?>
<!-- Generator: Adobe Illustrator 17.0.0, SVG Export Plug-In . SVG Version: 6.00 Build 0)  -->
<!DOCTYPE svg PUBLIC "-//W3C//DTD SVG 1.1//EN" "http://www.w3.org/Graphics/SVG/1.1/DTD/svg11.dtd">
<svg version="1.1" id="Слой_1" xmlns="http://www.w3.org/2000/svg" xmlns:xlink="http://www.w3.org/1999/xlink" x="0px" y="0px"
	 width="300px" height="300px" viewBox="0 0 300 300" enable-background="new 0 0 300 300" xml:space="preserve">
<g>
	<path fill="#30B56C" d="M264.105,287.911c-0.125,0.076-0.25,0.151-0.375,0.227C263.855,288.062,263.981,287.987,264.105,287.911z"
		/>
	<path fill="#30B56C" d="M257.925,291.295c-0.029,0.014-0.059,0.028-0.088,0.042C257.867,291.323,257.896,291.309,257.925,291.295z"
		/>
	<path fill="#30B56C" d="M238.33,297.467c-0.321,0.051-0.642,0.102-0.965,0.148C237.688,297.568,238.009,297.518,238.33,297.467z"/>
	<path fill="#30B56C" d="M244.897,296.095c-0.068,0.018-0.135,0.035-0.203,0.052C244.762,296.13,244.83,296.112,244.897,296.095z"/>
	<path fill="#30B56C" d="M267.044,286.008c-0.093,0.063-0.184,0.129-0.277,0.192C266.861,286.137,266.951,286.071,267.044,286.008z"
		/>
	<path fill="#30B56C" d="M227.02,1.621H72.981c-39.248,0-71.36,32.112-71.36,71.36v154.039c0,39.248,32.112,71.36,71.36,71.36
		H227.02c3.315,0,6.573-0.247,9.771-0.691l-28.136-37.297c-17.191,9.134-36.791,14.333-57.615,14.333
		c-67.928,0-122.994-55.066-122.994-122.994c0-67.928,55.066-122.994,122.994-122.994c36.075,0,68.523,15.532,91.021,40.273
		L226.989,81.41c-1.151-1.271-2.337-2.528-3.563-3.767c-20.1-20.442-44.269-30.666-72.505-30.666
		c-28.361,0-52.527,10.224-72.503,30.666c-20.102,20.321-30.15,44.89-30.15,73.709c0,28.698,10.047,53.202,30.15,73.523
		c19.975,20.321,44.142,30.482,72.503,30.482c28.236,0,52.405-10.162,72.505-30.482c20.097-20.321,30.149-44.825,30.149-73.523
		c0-11.936-1.752-23.132-5.2-33.609l14.44-17.322c7.183,15.621,11.218,32.99,11.218,51.31c0,34.483-14.238,65.604-37.099,87.936
		l33.27,44.047c17.091-13.068,28.175-33.646,28.175-56.695V72.98C298.379,33.733,266.267,1.621,227.02,1.621z M165.502,202.898
		l-61.735-81.735l2.056-2.242l56.197,27.171L268.902,58.15l9.145,9.744L165.502,202.898z"/>
	<path fill="#30B56C" d="M269.791,284.04c-0.133,0.1-0.268,0.198-0.403,0.298C269.523,284.238,269.658,284.14,269.791,284.04z"/>
	<g>
		<polygon fill="#FFFFFF" points="105.822,118.922 103.767,121.164 165.502,202.898 278.047,67.895 268.902,58.15 162.02,146.093 		
			"/>
		<path fill="#FFFFFF" d="M262.815,100.421l-14.44,17.322c3.448,10.478,5.2,21.673,5.2,33.609c0,28.698-10.052,53.202-30.149,73.523
			c-20.1,20.321-44.269,30.482-72.505,30.482c-28.361,0-52.527-10.162-72.503-30.482c-20.102-20.321-30.15-44.825-30.15-73.523
			c0-28.819,10.047-53.388,30.15-73.709c19.975-20.442,44.142-30.666,72.503-30.666c28.236,0,52.405,10.224,72.505,30.666
			c1.226,1.24,2.412,2.496,3.563,3.767L242.06,69.01c-22.498-24.741-54.945-40.273-91.021-40.273
			c-67.928,0-122.994,55.066-122.994,122.994c0,67.928,55.066,122.994,122.994,122.994c20.824,0,40.425-5.199,57.615-14.333
			l28.146,37.31c12.457-1.704,23.838-6.663,33.413-13.975l-33.279-44.06c22.862-22.332,37.099-53.453,37.099-87.936
			C274.034,133.411,269.998,116.043,262.815,100.421z"/>
	</g>
</g>
</svg>
