<?xml version="1.0" encoding="utf-8"?>
<!-- Generator: Adobe Illustrator 17.0.0, SVG Export Plug-In . SVG Version: 6.00 Build 0)  -->
<!DOCTYPE svg PUBLIC "-//W3C//DTD SVG 1.1//EN" "http://www.w3.org/Graphics/SVG/1.1/DTD/svg11.dtd">
<svg version="1.1" id="Слой_1" xmlns="http://www.w3.org/2000/svg" xmlns:xlink="http://www.w3.org/1999/xlink" x="0px" y="0px"
	 width="1116.818px" height="300px" viewBox="0 0 1116.818 300" enable-background="new 0 0 1116.818 300" xml:space="preserve">
<g>
	<g>
		<path d="M440.295,79.518c2.3,0,4.245,0.827,5.838,2.477c1.593,1.592,2.387,3.537,2.387,5.837v83.231
			c0,2.299-0.794,4.245-2.387,5.837c-1.593,1.592-3.538,2.388-5.838,2.388s-4.245-0.796-5.836-2.388
			c-1.652-1.592-2.479-3.538-2.479-5.837v-4.335c-9.258,8.374-20.076,12.56-32.46,12.56c-13.562,0-25.12-4.865-34.673-14.595
			c-9.61-9.729-14.416-21.462-14.416-35.203c0-13.797,4.806-25.562,14.416-35.291c9.553-9.787,21.11-14.683,34.673-14.683
			c12.384,0,23.202,4.188,32.46,12.56v-4.245c0-2.3,0.826-4.245,2.479-5.837C436.05,80.345,437.995,79.518,440.295,79.518z
			 M399.521,162.749c8.962,0,16.629-3.242,22.996-9.729c6.31-6.546,9.464-14.388,9.464-23.528c0-9.198-3.154-17.07-9.464-23.615
			c-6.367-6.486-14.034-9.729-22.996-9.729c-8.965,0-16.629,3.243-22.996,9.729c-6.369,6.546-9.553,14.417-9.553,23.615
			c0,9.141,3.184,16.983,9.553,23.528C382.891,159.507,390.556,162.749,399.521,162.749z"/>
		<path d="M559.968,171.063c0,2.299-0.826,4.245-2.476,5.837c-1.593,1.592-3.538,2.388-5.838,2.388c-2.3,0-4.245-0.796-5.838-2.388
			c-1.591-1.592-2.387-3.538-2.387-5.837v-4.335c-9.317,8.374-20.168,12.56-32.549,12.56c-13.565,0-25.12-4.865-34.673-14.595
			c-9.612-9.729-14.416-21.462-14.416-35.203c0-13.797,4.804-25.562,14.416-35.291c9.553-9.787,21.108-14.683,34.673-14.683
			c12.382,0,23.232,4.217,32.549,12.648V54.045c0-2.3,0.796-4.245,2.387-5.838c1.593-1.65,3.538-2.476,5.838-2.476
			c2.3,0,4.245,0.826,5.838,2.476c1.65,1.593,2.476,3.538,2.476,5.838V171.063z M510.879,162.749c8.962,0,16.627-3.242,22.996-9.729
			c6.369-6.546,9.553-14.388,9.553-23.528v-0.088c0-9.198-3.184-17.04-9.553-23.527c-6.369-6.486-14.034-9.729-22.996-9.729
			c-8.965,0-16.629,3.243-22.999,9.729c-6.367,6.546-9.551,14.417-9.551,23.615c0,9.141,3.184,16.983,9.551,23.528
			C494.25,159.507,501.914,162.749,510.879,162.749z"/>
		<path d="M668.406,79.518c2.3,0,4.245,0.827,5.838,2.477c1.591,1.592,2.387,3.537,2.387,5.837v83.231
			c0,2.299-0.796,4.245-2.387,5.837c-1.593,1.592-3.538,2.388-5.838,2.388c-2.3,0-4.245-0.796-5.838-2.388
			c-1.65-1.592-2.476-3.538-2.476-5.837v-4.335c-9.258,8.374-20.078,12.56-32.46,12.56c-13.565,0-25.12-4.865-34.673-14.595
			c-9.612-9.729-14.418-21.462-14.418-35.203c0-13.797,4.806-25.562,14.418-35.291c9.553-9.787,21.108-14.683,34.673-14.683
			c12.382,0,23.202,4.188,32.46,12.56v-4.245c0-2.3,0.826-4.245,2.476-5.837C664.161,80.345,666.106,79.518,668.406,79.518z
			 M627.632,162.749c8.962,0,16.627-3.242,22.996-9.729c6.307-6.546,9.464-14.388,9.464-23.528c0-9.198-3.156-17.07-9.464-23.615
			c-6.369-6.486-14.034-9.729-22.996-9.729c-8.965,0-16.629,3.243-22.999,9.729c-6.367,6.546-9.553,14.417-9.553,23.615
			c0,9.141,3.186,16.983,9.553,23.528C611.002,159.507,618.667,162.749,627.632,162.749z"/>
		<path d="M744.295,79.429c13.503,0,25.061,4.895,34.673,14.683c9.553,9.729,14.327,21.493,14.327,35.291
			c0,13.74-4.774,25.474-14.327,35.203c-9.612,9.73-21.17,14.595-34.673,14.595c-12.384,0-23.232-4.186-32.549-12.56v38.122
			c0,2.299-0.796,4.245-2.389,5.837c-1.65,1.592-3.595,2.388-5.836,2.388c-2.3,0-4.277-0.796-5.928-2.388
			c-1.591-1.592-2.387-3.538-2.387-5.837V87.744c0-2.3,0.796-4.245,2.387-5.838c1.65-1.65,3.628-2.476,5.928-2.476
			c2.241,0,4.186,0.826,5.836,2.476c1.593,1.593,2.389,3.538,2.389,5.838v4.245C721.063,83.617,731.911,79.429,744.295,79.429z
			 M744.295,162.661c8.962,0,16.629-3.243,22.996-9.73c6.31-6.544,9.464-14.386,9.464-23.527c0-9.198-3.154-17.071-9.464-23.615
			c-6.367-6.486-14.034-9.73-22.996-9.73c-8.965,0-16.629,3.244-22.996,9.73c-6.369,6.544-9.553,14.417-9.553,23.615
			c0,9.141,3.184,16.983,9.553,23.527C727.666,159.418,735.331,162.661,744.295,162.661z"/>
		<path d="M819.035,164.694c-4.6-4.599-8.168-9.847-10.704-15.744c-2.653-6.191-3.98-12.648-3.98-19.37
			c0-13.798,4.893-25.592,14.684-35.38c4.657-4.599,9.995-8.166,16.009-10.702c6.191-2.654,12.707-3.981,19.547-3.981
			c13.798,0,25.619,4.895,35.467,14.683c4.6,4.599,8.166,9.906,10.702,15.921c2.655,6.192,3.98,12.679,3.98,19.459
			c0,2.299-0.794,4.245-2.387,5.837c-1.652,1.651-3.628,2.476-5.925,2.476h-74.475c1.886,7.195,5.838,13.121,11.853,17.778
			c6.072,4.719,13.002,7.076,20.785,7.076c12.263,0,21.728-3.744,28.391-11.233c1.474-1.71,3.362-2.624,5.662-2.742
			c2.3-0.118,4.303,0.561,6.015,2.033c1.71,1.535,2.623,3.45,2.742,5.749c0.117,2.242-0.591,4.217-2.124,5.926
			c-9.905,11.204-23.468,16.805-40.685,16.805C840.734,179.289,828.881,174.424,819.035,164.694z M887.141,121.266
			c-1.888-7.311-5.809-13.326-11.764-18.044c-6.134-4.776-13.061-7.165-20.785-7.165c-7.784,0-14.743,2.388-20.875,7.165
			c-5.957,4.718-9.878,10.733-11.764,18.044H887.141z"/>
		<path d="M963.826,79.518c2.298,0,4.245,0.827,5.836,2.477c1.65,1.592,2.476,3.537,2.476,5.837c0,2.3-0.826,4.245-2.476,5.837
			c-1.591,1.652-3.538,2.477-5.836,2.477c-8.081,0-14.979,3.243-20.698,9.729c-5.719,6.546-8.58,14.417-8.58,23.615v41.572
			c0,2.299-0.794,4.245-2.387,5.837c-1.652,1.592-3.598,2.388-5.838,2.388c-2.3,0-4.275-0.796-5.925-2.388
			c-1.593-1.592-2.389-3.538-2.389-5.837V87.832c0-2.3,0.796-4.245,2.389-5.837c1.65-1.65,3.625-2.477,5.925-2.477
			c2.241,0,4.186,0.827,5.838,2.477c1.593,1.592,2.387,3.537,2.387,5.837v3.273C943.041,83.381,952.797,79.518,963.826,79.518z"/>
		<path d="M992.482,45.908c1.769,0,3.495,0.457,5.175,1.371c1.68,0.914,3.007,2.226,3.98,3.935c0.973,1.711,1.46,3.48,1.46,5.307
			c0,1.829-0.474,3.582-1.417,5.263c-0.943,1.68-2.254,2.994-3.934,3.935c-1.682,0.944-3.438,1.416-5.264,1.416
			c-1.829,0-3.582-0.471-5.262-1.416c-1.682-0.942-2.994-2.255-3.936-3.935c-0.945-1.681-1.417-3.434-1.417-5.263
			c0-1.827,0.471-3.597,1.417-5.307c0.943-1.71,2.268-3.021,3.98-3.935C988.974,46.364,990.713,45.908,992.482,45.908z
			 M992.482,79.518c2.3,0,4.245,0.827,5.838,2.477c1.65,1.592,2.476,3.537,2.476,5.837v83.231c0,2.299-0.826,4.245-2.476,5.837
			c-1.593,1.592-3.538,2.388-5.838,2.388s-4.245-0.796-5.838-2.388c-1.65-1.592-2.476-3.538-2.476-5.837V87.832
			c0-2.3,0.826-4.245,2.476-5.837C988.237,80.345,990.182,79.518,992.482,79.518z"/>
		<path d="M1064.568,79.518c13.503,0,25.061,4.895,34.673,14.683c9.61,9.729,14.416,21.494,14.416,35.291
			c0,13.741-4.806,25.474-14.416,35.203c-9.612,9.73-21.17,14.595-34.673,14.595c-13.562,0-25.12-4.865-34.671-14.595
			c-9.612-9.729-14.418-21.462-14.418-35.203c0-13.797,4.806-25.562,14.418-35.291C1039.448,84.413,1051.005,79.518,1064.568,79.518
			z M1064.568,162.749c8.962,0,16.629-3.242,22.996-9.729c6.369-6.546,9.553-14.388,9.553-23.528c0-9.198-3.183-17.07-9.553-23.615
			c-6.367-6.486-14.034-9.729-22.996-9.729s-16.627,3.243-22.996,9.729c-6.369,6.546-9.553,14.417-9.553,23.615
			c0,9.141,3.183,16.983,9.553,23.528C1047.941,159.507,1055.605,162.749,1064.568,162.749z"/>
	</g>
	<text transform="matrix(1 0 0 1 348.4336 254.923)" font-family="'Days'" font-size="35.6152">ИСТОРИЯ АВТОМОБИЛЯ В ДЕТАЛЯХ</text>
	<g>
		<path fill="#30B56C" d="M265.557,287.864c-0.125,0.076-0.25,0.151-0.375,0.227C265.307,288.015,265.432,287.94,265.557,287.864z"
			/>
		<path fill="#30B56C" d="M259.379,291.247c-0.029,0.014-0.059,0.028-0.088,0.042C259.321,291.275,259.35,291.261,259.379,291.247z"
			/>
		<path fill="#30B56C" d="M239.791,297.417c-0.321,0.051-0.642,0.102-0.965,0.148C239.149,297.518,239.47,297.468,239.791,297.417z"
			/>
		<path fill="#30B56C" d="M246.355,296.045c-0.068,0.018-0.135,0.035-0.203,0.052C246.22,296.08,246.288,296.063,246.355,296.045z"
			/>
		<path fill="#30B56C" d="M268.495,285.962c-0.093,0.063-0.184,0.129-0.277,0.192C268.311,286.091,268.402,286.025,268.495,285.962z
			"/>
		<path fill="#30B56C" d="M228.484,1.671H74.497c-39.235,0-71.336,32.101-71.336,71.336v153.987
			c0,39.235,32.101,71.336,71.336,71.336h153.987c3.314,0,6.571-0.247,9.768-0.69l-28.127-37.284
			c-17.185,9.131-36.779,14.328-57.596,14.328c-67.905,0-122.953-55.048-122.953-122.952c0-67.905,55.048-122.953,122.953-122.953
			c36.063,0,68.499,15.526,90.99,40.259l-15.066,12.396c-1.151-1.271-2.336-2.527-3.562-3.766
			c-20.093-20.435-44.254-30.656-72.481-30.656c-28.351,0-52.51,10.22-72.478,30.656c-20.096,20.314-30.139,44.874-30.139,73.684
			c0,28.689,10.044,53.184,30.139,73.498c19.969,20.314,44.127,30.472,72.478,30.472c28.227,0,52.388-10.158,72.481-30.472
			c20.09-20.314,30.139-44.81,30.139-73.498c0-11.932-1.751-23.124-5.198-33.598l14.435-17.316
			c7.181,15.616,11.215,32.979,11.215,51.293c0,34.472-14.233,65.582-37.087,87.907l33.258,44.032
			c17.086-13.064,28.166-33.635,28.166-56.676V73.007C299.82,33.772,267.719,1.671,228.484,1.671z M166.987,202.88l-61.715-81.707
			l2.055-2.241l56.178,27.162l106.847-87.913l9.142,9.741L166.987,202.88z"/>
		<path fill="#30B56C" d="M271.241,283.994c-0.133,0.1-0.268,0.198-0.402,0.298C270.973,284.193,271.108,284.095,271.241,283.994z"
			/>
		<g>
			<polygon fill="#FFFFFF" points="107.328,118.933 105.273,121.173 166.987,202.88 279.494,67.922 270.353,58.181 163.506,146.094 
							"/>
			<path fill="#FFFFFF" d="M264.268,100.438l-14.435,17.316c3.447,10.474,5.198,21.666,5.198,33.598
				c0,28.689-10.049,53.184-30.139,73.498c-20.093,20.314-44.254,30.472-72.481,30.472c-28.351,0-52.51-10.158-72.478-30.472
				c-20.096-20.314-30.139-44.81-30.139-73.498c0-28.81,10.044-53.37,30.139-73.684c19.969-20.435,44.127-30.656,72.478-30.656
				c28.227,0,52.388,10.22,72.481,30.656c1.226,1.239,2.411,2.495,3.562,3.766l15.066-12.397
				c-22.491-24.733-54.927-40.259-90.99-40.259c-67.905,0-122.952,55.048-122.952,122.953c0,67.905,55.048,122.952,122.952,122.952
				c20.817,0,40.411-5.197,57.596-14.328l28.137,37.297c12.453-1.703,23.829-6.66,33.401-13.97l-33.268-44.045
				c22.854-22.324,37.087-53.435,37.087-87.907C275.482,133.417,271.448,116.054,264.268,100.438z"/>
		</g>
	</g>
</g>
</svg>
